#!OML:ASF E:\basketball\basketball\Project 1\Capture day 1\Session 1\Subject.ASF
:FULLY-SPECIFIED
:DEGREES
164
root 11.7959 14.347 0.00796114 -341.298 50.9066 -362.214
lowerback 22.5296 8.99184 4.77742
upperback 10.554 12.831 0.169858
thorax 0.272679 6.71127 -5.0834
lowerneck -2.52016 -12.5293 -11.7306
upperneck -30.5567 -12.4247 22.8765
head -6.18475 -6.55659 10.0317
rclavicle 5.08889e-014 -1.59028e-015
rhumerus 30.1215 -58.5743 -94.8965
rradius 22.9089
rwrist 19.2796
rhand -22.4704 25.0721
rfingers 7.12502
rthumb 3.95452 -4.87098
lclavicle 5.08889e-014 -1.59028e-015
lhumerus -64.6582 -21.1849 94.5039
lradius 61.08
lwrist 31.4057
lhand -29.7501 39.3539
lfingers 7.12502
lthumb -3.0761 69.3115
rfemur 13.0542 0.469953 30.863
rtibia 24.8468
rfoot -0.166347 0.0625446
rtoes -24.9006
lfemur -72.2076 12.7226 -27.5088
ltibia 77.5924
lfoot -13.5519 -8.44121
ltoes -26.8632
165
root 12.1475 14.3054 0.281909 -342.453 52.9666 -363.824
lowerback 22.404 8.38599 5.91702
upperback 10.516 12.3 0.470233
thorax 0.404074 6.49103 -5.24758
lowerneck -1.90502 -12.423 -11.5612
upperneck -30.8472 -12.189 23.3527
head -6.38798 -6.53099 10.2651
rclavicle -3.33958e-014 3.81667e-014
rhumerus 24.29 -56.5984 -89.89
rradius 24.8777
rwrist 12.1036
rhand -24.1661 26.131
rfingers 7.12502
rthumb 2.3169 -3.83616
lclavicle -3.33958e-014 3.81667e-014
lhumerus -61.1715 -19.3917 93.2611
lradius 62.0045
lwrist 30.5019
lhand -30.2521 38.2901
lfingers 7.12502
lthumb -3.56091 68.2401
rfemur 12.4864 -0.971283 32.8224
rtibia 27.7838
rfoot 0.0351768 -0.944378
rtoes -28.349
lfemur -71.8243 12.7107 -28.4565
ltibia 76.0943
lfoot -11.4085 -10.7719
ltoes -25.5239
166
root 12.5019 14.2593 0.551043 -343.417 55.0227 -364.906
lowerback 22.2465 7.6547 6.62987
upperback 10.4932 11.5246 0.794672
thorax 0.427668 6.13014 -5.13073
lowerneck -1.25614 -12.2621 -11.2731
upperneck -30.894 -11.966 23.5584
head -6.55963 -6.50852 10.3668
rclavicle 3.49861e-014 -4.6118e-014
rhumerus 18.6341 -53.706 -85.0601
rradius 27.0696
rwrist 6.09175
rhand -24.1923 28.1947
rfingers 7.12502
rthumb 2.2916 -1.77278
lclavicle 3.49861e-014 -4.6118e-014
lhumerus -57.9196 -17.041 92.4674
lradius 62.835
lwrist 29.5461
lhand -30.8319 37.1167
lfingers 7.12502
lthumb -4.12078 67.0566
rfemur 11.5926 -3.1733 34.1349
rtibia 31.7195
rfoot -0.0401005 -1.79103
rtoes -27.5141
lfemur -70.7346 12.7382 -29.6133
ltibia 75.1673
lfoot -8.75333 -12.4511
ltoes -7.26343
167
root 12.8541 14.1959 0.817057 -343.502 56.8069 -364.823
lowerback 21.8983 6.98906 6.5875
upperback 10.6423 10.6712 1.0193
thorax 0.591107 5.71892 -4.66973
lowerneck -0.247772 -12.0365 -11.2493
upperneck -31.3013 -11.62 23.9237
head -6.90072 -6.42862 10.6473
rclavicle 2.22639e-014 -2.06736e-014
rhumerus 13.4662 -50.0108 -80.5348
rradius 29.6237
rwrist 0.959159
rhand -24.1859 30.1742
rfingers 7.12502
rthumb 2.29779 0.206878
lclavicle 2.22639e-014 -2.06736e-014
lhumerus -54.569 -14.4461 92.0891
lradius 63.6816
lwrist 28.5363
lhand -31.5246 35.9922
lfingers 7.12502
lthumb -4.78972 65.9181
rfemur 10.2582 -5.83493 34.3656
rtibia 36.4645
rfoot -0.108283 -2.09078
rtoes -23.5994
lfemur -68.4968 13.0793 -31.5489
ltibia 74.7526
lfoot -9.29139 -10.9743
ltoes 12.079
168
root 13.2346 14.1919 1.09572 -342.72 58.2421 -363.661
lowerback 21.555 6.45119 6.0663
upperback 10.7924 9.88358 1.01609
thorax 0.729594 5.32673 -4.20863
lowerneck -0.214248 -11.9408 -11.0173
upperneck -30.7467 -11.4819 24.215
head -6.738 -6.42542 10.6628
rclavicle -2.70347e-014 -7.95139e-014
rhumerus 9.32074 -46.9062 -77.0581
rradius 32.0663
rwrist -2.52629
rhand -24.7648 32.0631
rfingers 7.12502
rthumb 1.73877 2.09047
lclavicle -2.70347e-014 -7.95139e-014
lhumerus -51.3797 -12.2187 92.0484
lradius 64.6658
lwrist 27.4886
lhand -32.0027 35.5859
lfingers 7.12502
lthumb -5.25129 65.5008
rfemur 8.65359 -8.67923 33.5744
rtibia 41.6775
rfoot -0.376003 -1.62774
rtoes -21.6707
lfemur -65.2304 13.2738 -32.7988
ltibia 74.7214
lfoot -15.5453 -5.35548
ltoes 6.98472
169
root 13.6341 14.1919 1.37262 -342.201 59.3993 -362.926
lowerback 21.1476 5.93125 5.68549
upperback 10.7803 9.13753 1.0096
thorax 0.766451 4.94679 -3.83949
lowerneck -0.0532637 -11.7955 -10.7604
upperneck -30.1322 -11.3227 24.3877
head -6.59977 -6.40756 10.6396
rclavicle -4.6118e-014 -1.90833e-014
rhumerus 5.68608 -44.0466 -74.3279
rradius 34.6718
rwrist -5.32654
rhand -25.787 33.6535
rfingers 7.12502
rthumb 0.751513 3.67507
lclavicle -4.6118e-014 -1.90833e-014
lhumerus -48.4896 -10.1128 92.3661
lradius 65.6397
lwrist 26.3055
lhand -32.4956 35.8238
lfingers 7.12502
lthumb -5.7272 65.7264
rfemur 6.69808 -11.2179 32.8003
rtibia 47.4195
rfoot -0.975314 -0.958783
rtoes -22.979
lfemur -61.7129 13.2334 -32.8249
ltibia 74.1502
lfoot -20.6975 -1.19012
ltoes -13.1238
170
root 14.0471 14.1918 1.64775 -341.956 60.3124 -362.783
lowerback 20.5219 5.45628 5.41341
upperback 10.7078 8.45373 1.10169
thorax 0.865257 4.59494 -3.41648
lowerneck 0.243755 -11.559 -10.9388
upperneck -29.6598 -11.0204 24.767
head -6.50358 -6.29681 10.7971
rclavicle -4.45278e-014 1.90833e-014
rhumerus 2.50725 -41.2964 -72.0832
rradius 37.6527
rwrist -8.48584
rhand -27.208 35.095
rfingers 7.12502
rthumb -0.621016 5.11616
lclavicle -4.45278e-014 1.90833e-014
lhumerus -45.5483 -8.04359 93.0709
lradius 66.568
lwrist 25.0741
lhand -33.3892 36.0955
lfingers 7.12502
lthumb -6.58993 65.973
rfemur 4.24478 -13.1365 32.2979
rtibia 53.5202
rfoot -1.26498 -1.09945
rtoes -21.8548
lfemur -58.6352 12.9347 -31.8345
ltibia 73.1372
lfoot -23.9228 -5.82446
ltoes -0.436995
171
root 14.4426 14.1782 1.90123 -341.193 61.2114 -361.833
lowerback 20.4041 4.98003 5.26052
upperback 10.659 7.81296 0.871334
thorax 0.820501 4.27958 -3.46135
lowerneck -0.106577 -11.5069 -10.5996
upperneck -28.8564 -10.8924 25.2537
head -6.18403 -6.29352 10.8057
rclavicle -1.43125e-014 5.88403e-014
rhumerus -0.279335 -39.9803 -70.547
rradius 40.8785
rwrist -11.8614
rhand -28.3328 36.8718
rfingers 7.12502
rthumb -1.70734 6.89888
lclavicle -1.43125e-014 5.88403e-014
lhumerus -42.41 -7.03055 93.8108
lradius 67.5561
lwrist 23.9866
lhand -34.3598 36.5511
lfingers 7.12502
lthumb -7.52687 66.3972
rfemur 1.50379 -14.8954 31.3993
rtibia 60.1022
rfoot -0.685298 -2.54239
rtoes -19.9526
lfemur -55.4678 12.5195 -31.3513
ltibia 72.051
lfoot -25.1051 -9.53809
ltoes 8.12334
172
root 14.8105 14.1493 2.13261 -340.126 62.2156 -360.272
lowerback 20.7356 4.29254 4.96209
upperback 10.6381 6.90534 0.654192
thorax 0.533887 3.8221 -3.41087
lowerneck -0.134171 -11.4448 -10.5543
upperneck -28.493 -10.7136 25.9288
head -6.03308 -6.26869 11.0096
rclavicle 1.11319e-014 -1.43125e-014
rhumerus -2.73676 -38.9258 -69.339
rradius 44.5786
rwrist -15.6537
rhand -28.7572 38.2151
rfingers 7.12502
rthumb -2.11718 8.24591
lclavicle 1.11319e-014 -1.43125e-014
lhumerus -39.2636 -6.11048 94.7744
lradius 68.6347
lwrist 22.9083
lhand -35.1297 36.9316
lfingers 7.12502
lthumb -8.26992 66.7498
rfemur -1.52047 -16.5873 30.2636
rtibia 67.0598
rfoot -2.07555 -3.83382
rtoes -22.7999
lfemur -52.8189 11.724 -31.0055
ltibia 71.8955
lfoot -26.7305 -8.26178
ltoes 0.940788
173
root 15.1719 14.115 2.36869 -338.774 63.0122 -358.689
lowerback 20.8433 3.70529 4.49379
upperback 10.5685 6.07843 0.460101
thorax 0.295217 3.3946 -3.22697
lowerneck -0.0915199 -11.3249 -10.6177
upperneck -28.2564 -10.4589 26.5523
head -5.94874 -6.19256 11.2407
rclavicle -3.18055e-015 2.94201e-014
rhumerus -5.28508 -38.1643 -68.1272
rradius 48.8501
rwrist -19.6674
rhand -28.8967 39.011
rfingers 7.12502
rthumb -2.25195 9.04317
lclavicle -3.18055e-015 2.94201e-014
lhumerus -36.1193 -5.66247 95.8777
lradius 69.7572
lwrist 21.9402
lhand -35.7474 36.0653
lfingers 7.12502
lthumb -8.86609 65.859
rfemur -5.12023 -17.6786 29.2229
rtibia 74.1059
rfoot -3.04702 -5.42617
rtoes -18.4547
lfemur -50.6873 11.1487 -30.9064
ltibia 71.9035
lfoot -27.5847 -7.45403
ltoes -4.99721
174
root 15.5293 14.0915 2.61701 -336.306 63.3927 -355.968
lowerback 20.8678 3.35624 3.28614
upperback 10.5576 5.4196 0.215727
thorax 0.116666 3.02666 -2.69796
lowerneck -0.229001 -11.2973 -10.5798
upperneck -28.0854 -10.3811 26.8302
head -5.86084 -6.17364 11.311
rclavicle -3.18055e-014 7.15625e-015
rhumerus -7.611 -38.0318 -66.8453
rradius 53.0261
rwrist -23.0171
rhand -28.954 39.7596
rfingers 7.12502
rthumb -2.30724 9.79234
lclavicle -3.18055e-014 7.15625e-015
lhumerus -32.9436 -5.92185 97.1816
lradius 70.7383
lwrist 20.8376
lhand -36.0125 35.2049
lfingers 7.12502
lthumb -9.12188 64.9876
rfemur -9.00643 -18.2827 27.6189
rtibia 80.9795
rfoot -2.9471 -7.49438
rtoes -17.1194
lfemur -48.635 10.8902 -31.5159
ltibia 71.8977
lfoot -27.9509 -7.26871
ltoes -9.56051
175
root 15.8714 14.0817 2.87651 -333.162 63.5241 -352.215
lowerback 21.2896 3.05737 1.38854
upperback 10.6036 4.71727 0.00690621
thorax -0.232688 2.61401 -1.7532
lowerneck -0.142212 -11.1668 -10.6914
upperneck -28.2098 -10.1597 26.9891
head -5.93686 -6.07521 11.4251
rclavicle 6.36111e-015 7.15625e-015
rhumerus -9.3727 -38.2382 -65.702
rradius 56.6771
rwrist -25.1456
rhand -28.8683 40.467
rfingers 7.12502
rthumb -2.22453 10.4989
lclavicle 6.36111e-015 7.15625e-015
lhumerus -29.855 -6.63134 98.591
lradius 72.1562
lwrist 20.2556
lhand -35.6123 36.2101
lfingers 7.12502
lthumb -8.73563 66.0094
rfemur -13.0543 -18.3856 25.5327
rtibia 87.5023
rfoot -3.23682 -8.45273
rtoes -14.5933
lfemur -46.1574 10.8073 -32.4318
ltibia 71.5433
lfoot -28.0743 -7.82406
ltoes -11.3719
176
root 16.206 14.0716 3.13789 -330.493 63.6306 -348.808
lowerback 22.2128 2.71651 -0.551377
upperback 10.3995 3.926 -0.0295209
thorax -1.06418 2.15091 -0.602079
lowerneck 0.307555 -10.7517 -10.9418
upperneck -28.1732 -9.63381 26.9404
head -6.10337 -5.8135 11.5229
rclavicle -3.18055e-014 -2.14687e-014
rhumerus -11.3829 -38.0371 -64.2805
rradius 60.0816
rwrist -26.7666
rhand -28.8548 41.176
rfingers 7.12502
rthumb -2.21149 11.2077
lclavicle -3.18055e-014 -2.14687e-014
lhumerus -27.2444 -7.11971 99.8075
lradius 73.8006
lwrist 20.3898
lhand -34.5379 36.0815
lfingers 7.12502
lthumb -7.69876 65.9213
rfemur -16.7505 -17.8122 23.6026
rtibia 93.3578
rfoot -5.1173 -8.26462
rtoes -10.8305
lfemur -43.4213 10.8202 -32.9222
ltibia 70.9444
lfoot -28.0739 -8.68578
ltoes -13.1734
177
root 16.5541 14.0681 3.40211 -328.412 63.6357 -346
lowerback 23.2474 2.40189 -2.24804
upperback 10.093 3.16682 -0.021975
thorax -1.98696 1.72796 0.478826
lowerneck 0.769346 -10.41 -11.4668
upperneck -27.8083 -9.24662 27.2187
head -6.08999 -5.62294 11.7451
rclavicle -3.10104e-014 -7.95139e-016
rhumerus -13.5807 -37.809 -62.7044
rradius 63.3196
rwrist -28.4976
rhand -29.1941 41.6654
rfingers 7.12502
rthumb -2.53913 11.7008
lclavicle -3.10104e-014 -7.95139e-016
lhumerus -24.8693 -7.74504 100.839
lradius 75.5708
lwrist 20.4333
lhand -32.4391 35.8972
lfingers 7.12502
lthumb -5.6727 65.8013
rfemur -21.0438 -16.7263 21.901
rtibia 98.5332
rfoot -5.08154 -8.33306
rtoes -8.80122
lfemur -40.392 11.0529 -33.0401
ltibia 70.0308
lfoot -28.0272 -9.31788
ltoes -18.2518
